<svg width="48" height="48" viewBox="0 0 48 48" fill="none" xmlns="http://www.w3.org/2000/svg">
<circle cx="23.8748" cy="23.8748" r="23.8748" fill="white"/>
<path d="M29.2685 27.6671C28.6969 27.6672 28.133 27.7788 27.6204 27.9934C27.1078 28.208 26.6602 28.5198 26.3123 28.9047L18.2639 25.028C18.5343 24.3621 18.5343 23.6385 18.2639 22.9725L26.3123 19.0958C26.8741 19.7144 27.6856 20.1348 28.5907 20.2762C29.4958 20.4175 30.4305 20.2697 31.2149 19.8614C31.9993 19.453 32.5781 18.8129 32.8398 18.0641C33.1016 17.3154 33.0278 16.5109 32.6326 15.8056C32.2375 15.1002 31.5489 14.5438 30.6995 14.2434C29.85 13.943 28.8996 13.9199 28.0312 14.1784C27.1629 14.4369 26.4378 14.9588 25.9956 15.6437C25.5534 16.3287 25.4253 17.1282 25.6359 17.8885L17.4504 21.8312C16.9381 21.3688 16.274 21.0476 15.5441 20.9094C14.8142 20.7712 14.0522 20.8223 13.357 21.0561C12.6617 21.2899 12.0653 21.6956 11.645 22.2206C11.2247 22.7455 11 23.3656 11 24.0003C11 24.6349 11.2247 25.255 11.645 25.7799C12.0653 26.3049 12.6617 26.7106 13.357 26.9444C14.0522 27.1782 14.8142 27.2293 15.5441 27.0911C16.274 26.9529 16.9381 26.6317 17.4504 26.1693L25.636 30.1121C25.4595 30.7521 25.5221 31.4229 25.8151 32.0313C26.1081 32.6398 26.6169 33.1558 27.271 33.5078C27.9252 33.8598 28.6921 34.0302 29.4656 33.9956C30.239 33.961 30.9806 33.7229 31.5874 33.3144C32.1942 32.906 32.6363 32.3474 32.8521 31.7161C33.068 31.0849 33.0471 30.4122 32.7922 29.7915C32.5373 29.1708 32.0611 28.6329 31.4297 28.2522C30.7983 27.8715 30.043 27.667 29.2685 27.6671ZM29.2685 15.3332C29.6957 15.3332 30.1134 15.4407 30.4687 15.6422C30.824 15.8436 31.1009 16.13 31.2644 16.465C31.4279 16.8 31.4707 17.1686 31.3873 17.5243C31.304 17.8799 31.0982 18.2066 30.7961 18.463C30.4939 18.7194 30.109 18.894 29.6899 18.9648C29.2709 19.0355 28.8365 18.9992 28.4417 18.8605C28.047 18.7217 27.7096 18.4867 27.4722 18.1852C27.2348 17.8837 27.1081 17.5292 27.1081 17.1666C27.1088 16.6805 27.3366 16.2145 27.7416 15.8708C28.1466 15.527 28.6957 15.3337 29.2685 15.3332ZM14.7352 25.8337C14.3079 25.8337 13.8902 25.7262 13.535 25.5247C13.1797 25.3232 12.9028 25.0369 12.7393 24.7019C12.5758 24.3669 12.533 23.9982 12.6164 23.6426C12.6997 23.2869 12.9055 22.9602 13.2076 22.7038C13.5097 22.4474 13.8947 22.2728 14.3137 22.2021C14.7328 22.1313 15.1672 22.1676 15.5619 22.3064C15.9567 22.4452 16.2941 22.6802 16.5315 22.9817C16.7688 23.2832 16.8955 23.6376 16.8955 24.0003C16.8949 24.4863 16.6671 24.9524 16.2621 25.2961C15.8571 25.6398 15.308 25.8331 14.7352 25.8337ZM29.2685 32.6673C28.8412 32.6673 28.4235 32.5598 28.0682 32.3584C27.713 32.1569 27.4361 31.8706 27.2726 31.5355C27.1091 31.2005 27.0663 30.8319 27.1496 30.4762C27.233 30.1206 27.4387 29.7939 27.7409 29.5375C28.043 29.2811 28.4279 29.1065 28.847 29.0357C29.2661 28.965 29.7004 29.0013 30.0952 29.1401C30.49 29.2788 30.8274 29.5138 31.0647 29.8153C31.3021 30.1168 31.4288 30.4713 31.4288 30.8339C31.4282 31.32 31.2004 31.786 30.7954 32.1298C30.3904 32.4735 29.8412 32.6668 29.2685 32.6673Z" fill="black"/>
</svg>
